<mxfile host="Electron" agent="Mozilla/5.0 (Windows NT 10.0; Win64; x64) AppleWebKit/537.36 (KHTML, like Gecko) draw.io/24.7.8 Chrome/128.0.6613.36 Electron/32.0.1 Safari/537.36" version="24.7.8">
  <diagram name="페이지-1" id="2HVD0MXHsJkQR_IcIXNo">
    <mxGraphModel dx="1098" dy="828" grid="1" gridSize="10" guides="1" tooltips="1" connect="1" arrows="1" fold="1" page="1" pageScale="1" pageWidth="827" pageHeight="1169" math="0" shadow="0">
      <root>
        <mxCell id="0" />
        <mxCell id="1" parent="0" />
        <mxCell id="UE_fyRFd0skjNKmiVRWu-5" value="" style="edgeStyle=orthogonalEdgeStyle;rounded=0;orthogonalLoop=1;jettySize=auto;html=1;" edge="1" parent="1" source="UE_fyRFd0skjNKmiVRWu-1" target="UE_fyRFd0skjNKmiVRWu-3">
          <mxGeometry relative="1" as="geometry" />
        </mxCell>
        <mxCell id="UE_fyRFd0skjNKmiVRWu-1" value="&lt;b&gt;&lt;font style=&quot;font-size: 14px;&quot;&gt;START&lt;/font&gt;&lt;/b&gt;" style="strokeWidth=2;html=1;shape=mxgraph.flowchart.terminator;whiteSpace=wrap;" vertex="1" parent="1">
          <mxGeometry x="201" y="64" width="150" height="80" as="geometry" />
        </mxCell>
        <mxCell id="UE_fyRFd0skjNKmiVRWu-8" value="&lt;font style=&quot;font-size: 14px;&quot;&gt;i=0;i&amp;lt;3;i++&lt;/font&gt;" style="swimlane;whiteSpace=wrap;html=1;" vertex="1" parent="1">
          <mxGeometry x="144" y="350" width="270" height="290" as="geometry" />
        </mxCell>
        <mxCell id="UE_fyRFd0skjNKmiVRWu-15" value="&lt;span style=&quot;font-size: 14px;&quot;&gt;j=0;j&amp;lt;3;j++&lt;/span&gt;" style="swimlane;whiteSpace=wrap;html=1;" vertex="1" parent="UE_fyRFd0skjNKmiVRWu-8">
          <mxGeometry x="46" y="70" width="184" height="180" as="geometry" />
        </mxCell>
        <mxCell id="UE_fyRFd0skjNKmiVRWu-20" value="&lt;b&gt;&lt;font style=&quot;font-size: 16px;&quot;&gt;arr[i][j]=0;&lt;/font&gt;&lt;/b&gt;" style="rounded=0;whiteSpace=wrap;html=1;" vertex="1" parent="UE_fyRFd0skjNKmiVRWu-15">
          <mxGeometry x="32" y="80" width="120" height="60" as="geometry" />
        </mxCell>
        <mxCell id="UE_fyRFd0skjNKmiVRWu-22" value="" style="endArrow=classic;html=1;rounded=0;entryX=0.38;entryY=0.011;entryDx=0;entryDy=0;entryPerimeter=0;" edge="1" parent="UE_fyRFd0skjNKmiVRWu-15">
          <mxGeometry width="50" height="50" relative="1" as="geometry">
            <mxPoint x="88.5" y="28" as="sourcePoint" />
            <mxPoint x="88.5" y="80" as="targetPoint" />
          </mxGeometry>
        </mxCell>
        <mxCell id="UE_fyRFd0skjNKmiVRWu-14" value="" style="endArrow=classic;html=1;rounded=0;entryX=0.363;entryY=0.017;entryDx=0;entryDy=0;entryPerimeter=0;" edge="1" parent="1">
          <mxGeometry width="50" height="50" relative="1" as="geometry">
            <mxPoint x="276" y="261" as="sourcePoint" />
            <mxPoint x="276.01" y="355.93000000000006" as="targetPoint" />
          </mxGeometry>
        </mxCell>
        <mxCell id="UE_fyRFd0skjNKmiVRWu-21" value="" style="endArrow=classic;html=1;rounded=0;entryX=0.38;entryY=0.011;entryDx=0;entryDy=0;entryPerimeter=0;" edge="1" parent="1">
          <mxGeometry width="50" height="50" relative="1" as="geometry">
            <mxPoint x="276" y="370" as="sourcePoint" />
            <mxPoint x="275.9200000000001" y="421.98" as="targetPoint" />
          </mxGeometry>
        </mxCell>
        <mxCell id="UE_fyRFd0skjNKmiVRWu-23" value="" style="endArrow=classic;html=1;rounded=0;entryX=0.38;entryY=0.011;entryDx=0;entryDy=0;entryPerimeter=0;exitX=0.5;exitY=1;exitDx=0;exitDy=0;" edge="1" parent="1" source="UE_fyRFd0skjNKmiVRWu-20">
          <mxGeometry width="50" height="50" relative="1" as="geometry">
            <mxPoint x="282" y="570" as="sourcePoint" />
            <mxPoint x="281.5" y="600" as="targetPoint" />
          </mxGeometry>
        </mxCell>
        <mxCell id="UE_fyRFd0skjNKmiVRWu-24" value="" style="endArrow=classic;html=1;rounded=0;exitX=0.5;exitY=1;exitDx=0;exitDy=0;" edge="1" parent="1">
          <mxGeometry width="50" height="50" relative="1" as="geometry">
            <mxPoint x="282" y="600" as="sourcePoint" />
            <mxPoint x="282" y="640" as="targetPoint" />
          </mxGeometry>
        </mxCell>
        <mxCell id="UE_fyRFd0skjNKmiVRWu-32" value="" style="group" vertex="1" connectable="0" parent="1">
          <mxGeometry x="201" y="190" width="150" height="70" as="geometry" />
        </mxCell>
        <mxCell id="UE_fyRFd0skjNKmiVRWu-3" value="" style="verticalLabelPosition=bottom;verticalAlign=top;html=1;shape=hexagon;perimeter=hexagonPerimeter2;arcSize=6;size=0.27;movable=1;resizable=1;rotatable=1;deletable=1;editable=1;locked=0;connectable=1;strokeWidth=2;" vertex="1" parent="UE_fyRFd0skjNKmiVRWu-32">
          <mxGeometry width="150" height="70" as="geometry" />
        </mxCell>
        <mxCell id="UE_fyRFd0skjNKmiVRWu-7" value="&lt;font style=&quot;font-size: 14px;&quot;&gt;&lt;b style=&quot;&quot;&gt;int i, j;&lt;/b&gt;&lt;/font&gt;&lt;div style=&quot;font-size: 14px;&quot;&gt;&lt;font style=&quot;font-size: 14px;&quot;&gt;&lt;b&gt;int arr[3][3]&lt;/b&gt;&lt;/font&gt;&lt;/div&gt;&lt;div style=&quot;font-size: 14px;&quot;&gt;&lt;font style=&quot;font-size: 14px;&quot;&gt;&lt;b style=&quot;&quot;&gt;int count = 1;&lt;/b&gt;&lt;/font&gt;&lt;/div&gt;" style="text;html=1;align=center;verticalAlign=middle;whiteSpace=wrap;rounded=0;" vertex="1" parent="UE_fyRFd0skjNKmiVRWu-32">
          <mxGeometry x="17.5" y="15" width="115" height="40" as="geometry" />
        </mxCell>
        <mxCell id="UE_fyRFd0skjNKmiVRWu-36" value="&lt;span style=&quot;font-size: 14px;&quot;&gt;i=0;i&amp;lt;3;i++&lt;/span&gt;" style="swimlane;whiteSpace=wrap;html=1;" vertex="1" parent="1">
          <mxGeometry x="144" y="1060" width="276" height="380" as="geometry" />
        </mxCell>
        <mxCell id="UE_fyRFd0skjNKmiVRWu-37" value="&lt;span style=&quot;font-size: 14px;&quot;&gt;j=0;j&amp;lt;3;j++&lt;/span&gt;" style="swimlane;whiteSpace=wrap;html=1;" vertex="1" parent="UE_fyRFd0skjNKmiVRWu-36">
          <mxGeometry x="40" y="60" width="184" height="180" as="geometry" />
        </mxCell>
        <mxCell id="UE_fyRFd0skjNKmiVRWu-39" value="" style="endArrow=classic;html=1;rounded=0;entryX=0.38;entryY=0.011;entryDx=0;entryDy=0;entryPerimeter=0;" edge="1" parent="UE_fyRFd0skjNKmiVRWu-37">
          <mxGeometry width="50" height="50" relative="1" as="geometry">
            <mxPoint x="89" y="28" as="sourcePoint" />
            <mxPoint x="88.5" y="80" as="targetPoint" />
          </mxGeometry>
        </mxCell>
        <mxCell id="UE_fyRFd0skjNKmiVRWu-42" value="&lt;b&gt;&lt;font style=&quot;font-size: 14px;&quot;&gt;arr[i][j]+&quot; &quot;&lt;/font&gt;&lt;/b&gt;" style="strokeWidth=2;html=1;shape=mxgraph.flowchart.display;whiteSpace=wrap;" vertex="1" parent="UE_fyRFd0skjNKmiVRWu-37">
          <mxGeometry x="38" y="80" width="100" height="60" as="geometry" />
        </mxCell>
        <mxCell id="UE_fyRFd0skjNKmiVRWu-43" value="" style="endArrow=classic;html=1;rounded=0;entryX=0.38;entryY=0.011;entryDx=0;entryDy=0;entryPerimeter=0;exitX=0.5;exitY=1;exitDx=0;exitDy=0;exitPerimeter=0;" edge="1" parent="UE_fyRFd0skjNKmiVRWu-37" source="UE_fyRFd0skjNKmiVRWu-42">
          <mxGeometry width="50" height="50" relative="1" as="geometry">
            <mxPoint x="88" y="150" as="sourcePoint" />
            <mxPoint x="87.5" y="180" as="targetPoint" />
          </mxGeometry>
        </mxCell>
        <mxCell id="UE_fyRFd0skjNKmiVRWu-48" value="" style="endArrow=classic;html=1;rounded=0;entryX=0.5;entryY=0;entryDx=0;entryDy=0;" edge="1" parent="UE_fyRFd0skjNKmiVRWu-37" target="UE_fyRFd0skjNKmiVRWu-37">
          <mxGeometry width="50" height="50" relative="1" as="geometry">
            <mxPoint x="92" y="-40" as="sourcePoint" />
            <mxPoint x="116" y="49" as="targetPoint" />
          </mxGeometry>
        </mxCell>
        <mxCell id="UE_fyRFd0skjNKmiVRWu-40" value="&lt;font style=&quot;font-size: 18px;&quot;&gt;&lt;b&gt;&quot;\n&quot;&amp;nbsp;&lt;/b&gt;&lt;/font&gt;" style="strokeWidth=2;html=1;shape=mxgraph.flowchart.display;whiteSpace=wrap;" vertex="1" parent="UE_fyRFd0skjNKmiVRWu-36">
          <mxGeometry x="82" y="280" width="100" height="60" as="geometry" />
        </mxCell>
        <mxCell id="UE_fyRFd0skjNKmiVRWu-41" value="&lt;b&gt;&lt;font style=&quot;font-size: 14px;&quot;&gt;END&lt;/font&gt;&lt;/b&gt;" style="strokeWidth=2;html=1;shape=mxgraph.flowchart.terminator;whiteSpace=wrap;" vertex="1" parent="1">
          <mxGeometry x="202" y="1480" width="150" height="80" as="geometry" />
        </mxCell>
        <mxCell id="UE_fyRFd0skjNKmiVRWu-45" value="" style="group" vertex="1" connectable="0" parent="1">
          <mxGeometry x="144" y="712" width="280" height="296" as="geometry" />
        </mxCell>
        <mxCell id="UE_fyRFd0skjNKmiVRWu-25" value="&lt;font style=&quot;font-size: 14px;&quot;&gt;i=0;i&amp;lt;3;i++&lt;/font&gt;" style="swimlane;whiteSpace=wrap;html=1;" vertex="1" parent="UE_fyRFd0skjNKmiVRWu-45">
          <mxGeometry width="280" height="296" as="geometry" />
        </mxCell>
        <mxCell id="UE_fyRFd0skjNKmiVRWu-26" value="&lt;span style=&quot;font-size: 14px;&quot;&gt;j=i;j&amp;lt;3;j++&lt;/span&gt;" style="swimlane;whiteSpace=wrap;html=1;" vertex="1" parent="UE_fyRFd0skjNKmiVRWu-25">
          <mxGeometry x="46" y="70" width="184" height="180" as="geometry" />
        </mxCell>
        <mxCell id="UE_fyRFd0skjNKmiVRWu-27" value="&lt;b&gt;&lt;font style=&quot;font-size: 16px;&quot;&gt;arr[i][j]=count++;&lt;/font&gt;&lt;/b&gt;" style="rounded=0;whiteSpace=wrap;html=1;" vertex="1" parent="UE_fyRFd0skjNKmiVRWu-26">
          <mxGeometry x="18" y="80" width="148" height="60" as="geometry" />
        </mxCell>
        <mxCell id="UE_fyRFd0skjNKmiVRWu-28" value="" style="endArrow=classic;html=1;rounded=0;entryX=0.38;entryY=0.011;entryDx=0;entryDy=0;entryPerimeter=0;" edge="1" parent="UE_fyRFd0skjNKmiVRWu-26">
          <mxGeometry width="50" height="50" relative="1" as="geometry">
            <mxPoint x="88.5" y="28" as="sourcePoint" />
            <mxPoint x="88.5" y="80" as="targetPoint" />
          </mxGeometry>
        </mxCell>
        <mxCell id="UE_fyRFd0skjNKmiVRWu-29" value="" style="endArrow=classic;html=1;rounded=0;entryX=0.38;entryY=0.011;entryDx=0;entryDy=0;entryPerimeter=0;" edge="1" parent="UE_fyRFd0skjNKmiVRWu-45">
          <mxGeometry width="50" height="50" relative="1" as="geometry">
            <mxPoint x="134" y="23" as="sourcePoint" />
            <mxPoint x="133.92000000000007" y="74.98000000000002" as="targetPoint" />
          </mxGeometry>
        </mxCell>
        <mxCell id="UE_fyRFd0skjNKmiVRWu-30" value="" style="endArrow=classic;html=1;rounded=0;entryX=0.38;entryY=0.011;entryDx=0;entryDy=0;entryPerimeter=0;exitX=0.5;exitY=1;exitDx=0;exitDy=0;" edge="1" parent="UE_fyRFd0skjNKmiVRWu-45" source="UE_fyRFd0skjNKmiVRWu-27">
          <mxGeometry width="50" height="50" relative="1" as="geometry">
            <mxPoint x="138" y="220" as="sourcePoint" />
            <mxPoint x="137.5" y="250" as="targetPoint" />
          </mxGeometry>
        </mxCell>
        <mxCell id="UE_fyRFd0skjNKmiVRWu-31" value="" style="endArrow=classic;html=1;rounded=0;exitX=0.5;exitY=1;exitDx=0;exitDy=0;" edge="1" parent="UE_fyRFd0skjNKmiVRWu-45">
          <mxGeometry width="50" height="50" relative="1" as="geometry">
            <mxPoint x="138" y="250" as="sourcePoint" />
            <mxPoint x="138" y="290" as="targetPoint" />
          </mxGeometry>
        </mxCell>
        <mxCell id="UE_fyRFd0skjNKmiVRWu-46" value="" style="endArrow=classic;html=1;rounded=0;" edge="1" parent="1">
          <mxGeometry width="50" height="50" relative="1" as="geometry">
            <mxPoint x="283.58" y="640" as="sourcePoint" />
            <mxPoint x="284" y="710" as="targetPoint" />
          </mxGeometry>
        </mxCell>
        <mxCell id="UE_fyRFd0skjNKmiVRWu-49" value="" style="endArrow=classic;html=1;rounded=0;entryX=0.5;entryY=0;entryDx=0;entryDy=0;" edge="1" parent="1">
          <mxGeometry width="50" height="50" relative="1" as="geometry">
            <mxPoint x="272" y="1301" as="sourcePoint" />
            <mxPoint x="272" y="1341" as="targetPoint" />
          </mxGeometry>
        </mxCell>
        <mxCell id="UE_fyRFd0skjNKmiVRWu-50" value="" style="endArrow=classic;html=1;rounded=0;entryX=0.5;entryY=0;entryDx=0;entryDy=0;" edge="1" parent="1">
          <mxGeometry width="50" height="50" relative="1" as="geometry">
            <mxPoint x="273" y="1400" as="sourcePoint" />
            <mxPoint x="273" y="1440" as="targetPoint" />
          </mxGeometry>
        </mxCell>
        <mxCell id="UE_fyRFd0skjNKmiVRWu-51" value="" style="endArrow=classic;html=1;rounded=0;entryX=0.5;entryY=0;entryDx=0;entryDy=0;" edge="1" parent="1">
          <mxGeometry width="50" height="50" relative="1" as="geometry">
            <mxPoint x="274" y="1441" as="sourcePoint" />
            <mxPoint x="274" y="1481" as="targetPoint" />
          </mxGeometry>
        </mxCell>
        <mxCell id="UE_fyRFd0skjNKmiVRWu-53" value="" style="endArrow=classic;html=1;rounded=0;exitX=0.5;exitY=1;exitDx=0;exitDy=0;entryX=0.5;entryY=0;entryDx=0;entryDy=0;" edge="1" parent="1" target="UE_fyRFd0skjNKmiVRWu-36">
          <mxGeometry width="50" height="50" relative="1" as="geometry">
            <mxPoint x="281" y="1008" as="sourcePoint" />
            <mxPoint x="281" y="1048" as="targetPoint" />
          </mxGeometry>
        </mxCell>
        <mxCell id="UE_fyRFd0skjNKmiVRWu-54" style="edgeStyle=orthogonalEdgeStyle;rounded=0;orthogonalLoop=1;jettySize=auto;html=1;entryX=0.5;entryY=0;entryDx=0;entryDy=0;" edge="1" parent="1">
          <mxGeometry relative="1" as="geometry">
            <mxPoint x="370" y="1050" as="sourcePoint" />
            <mxPoint x="370" y="1050" as="targetPoint" />
          </mxGeometry>
        </mxCell>
      </root>
    </mxGraphModel>
  </diagram>
</mxfile>
